# xmcd
#
# Track frame offsets: 
#        200
#        10652
#        28365
#        51940
#        70110
#        84685
#        97815
#        111650
#        142025
#        171500
#        203640
#        241815
#
# Disc length: 3589 seconds
#
# Revision: 2
# Processed by: cddbd v1.5.2PL0 Copyright (c) Steve Scherf et al.
# Submitted via: ExactAudioCopyFreeDBPlugin 1.0
#
DISCID=a70e030c
DTITLE=Butanes Soul Revue - One Night
DYEAR=1997
DGENRE=Blues
TTITLE0=Victim Of Circumstances
TTITLE1=You Need Love Like I Do (Don't You)
TTITLE2=A Nickel And A Nail
TTITLE3=Truning Point
TTITLE4=It's Your Thing
TTITLE5=Take Care Of Your Homework
TTITLE6=I Got The Will
TTITLE7=Gate Walks To Board
TTITLE8=Without You
TTITLE9=It Ain't No Fun To Me
TTITLE10=Turn Back The Hands Of Time - Time Is Tight - Time
TTITLE11=I Ain't Drunk
EXTD=
EXTT0=
EXTT1=
EXTT2=
EXTT3=
EXTT4=
EXTT5=
EXTT6=
EXTT7=
EXTT8=
EXTT9=
EXTT10=
EXTT11=
PLAYORDER=
